<svg id="Layer_1" data-name="Layer 1" xmlns="http://www.w3.org/2000/svg" viewBox="0 0 500 500"><defs><style>.cls-1{fill:#3a3a3a;}.cls-2{fill:#934c12;}.cls-3{fill:#7f4011;}.cls-4{fill:none;stroke:#000;stroke-linecap:round;stroke-linejoin:round;stroke-width:15px;}.cls-5{fill:#cc986d;}.cls-6{fill:#aa7d5c;}.cls-7{fill:#fcd32b;}.cls-8{fill:#e51c5a;}.cls-9{fill:#88cc12;}.cls-10{fill:#3066b5;}</style></defs><title>luggage</title><path class="cls-1" d="M305.93,49.19H194.07A23.31,23.31,0,0,0,170.76,72.5v58.7H199.6V84.55a7.75,7.75,0,0,1,7.75-7.74h85.3a7.75,7.75,0,0,1,7.75,7.74V131.2h28.84V72.5A23.31,23.31,0,0,0,305.93,49.19Z"/><rect class="cls-2" x="6.88" y="131.2" width="486.25" height="319.6" rx="23.17" ry="23.17"/><path class="cls-3" d="M470,414.81H30.05A23.17,23.17,0,0,1,6.88,391.64v36a23.17,23.17,0,0,0,23.17,23.17H470a23.17,23.17,0,0,0,23.17-23.17v-36A23.17,23.17,0,0,1,470,414.81Z"/><rect class="cls-4" x="6.88" y="131.2" width="486.25" height="319.6" rx="23.17" ry="23.17"/><rect class="cls-5" x="98.01" y="131.2" width="45.65" height="319.6"/><rect class="cls-6" x="98.01" y="414.81" width="45.65" height="36"/><rect class="cls-5" x="356.34" y="131.2" width="45.65" height="319.6" transform="translate(758.33 582.01) rotate(-180)"/><rect class="cls-6" x="356.34" y="414.81" width="45.65" height="36"/><rect class="cls-4" x="98.01" y="131.2" width="45.65" height="319.6"/><rect class="cls-4" x="356.34" y="131.2" width="45.65" height="319.6" transform="translate(758.33 582.01) rotate(-180)"/><path class="cls-7" d="M6.88,154.38v20.3a39.4,39.4,0,0,0,48.18-38.44,39.87,39.87,0,0,0-.33-5H30.05A23.17,23.17,0,0,0,6.88,154.38Z"/><path class="cls-7" d="M6.88,427.64V407.33a39.4,39.4,0,0,1,48.18,38.44,39.87,39.87,0,0,1-.33,5H30.05A23.17,23.17,0,0,1,6.88,427.64Z"/><path class="cls-7" d="M493.12,154.38v20.3a39.4,39.4,0,0,1-48.18-38.44,39.87,39.87,0,0,1,.33-5H470A23.17,23.17,0,0,1,493.12,154.38Z"/><path class="cls-7" d="M493.12,427.64V407.33a39.4,39.4,0,0,0-48.18,38.44,39.87,39.87,0,0,0,.33,5H470A23.17,23.17,0,0,0,493.12,427.64Z"/><path class="cls-4" d="M6.88,154.38v20.3a39.4,39.4,0,0,0,48.18-38.44,39.87,39.87,0,0,0-.33-5H30.05A23.17,23.17,0,0,0,6.88,154.38Z"/><path class="cls-4" d="M6.88,427.64V407.33a39.4,39.4,0,0,1,48.18,38.44,39.87,39.87,0,0,1-.33,5H30.05A23.17,23.17,0,0,1,6.88,427.64Z"/><path class="cls-4" d="M493.12,154.38v20.3a39.4,39.4,0,0,1-48.18-38.44,39.87,39.87,0,0,1,.33-5H470A23.17,23.17,0,0,1,493.12,154.38Z"/><path class="cls-4" d="M493.12,427.64V407.33a39.4,39.4,0,0,0-48.18,38.44,39.87,39.87,0,0,0,.33,5H470A23.17,23.17,0,0,0,493.12,427.64Z"/><path class="cls-4" d="M305.93,49.19H194.07A23.31,23.31,0,0,0,170.76,72.5v58.7H199.6V84.55a7.75,7.75,0,0,1,7.75-7.74h85.3a7.75,7.75,0,0,1,7.75,7.74V131.2h28.84V72.5A23.31,23.31,0,0,0,305.93,49.19Z"/><circle class="cls-7" cx="221.89" cy="330.27" r="32.12"/><circle class="cls-4" cx="221.89" cy="330.27" r="32.12"/><polygon class="cls-8" points="98.01 335.18 59.04 314.45 39.77 350.68 98.01 381.65 98.01 335.18"/><polygon class="cls-4" points="98.01 335.18 59.04 314.45 39.77 350.68 98.01 381.65 98.01 335.18"/><polygon class="cls-9" points="143.66 199.91 182.63 220.63 201.9 184.41 143.66 153.44 143.66 199.91"/><polygon class="cls-4" points="143.66 199.91 182.63 220.63 201.9 184.41 143.66 153.44 143.66 199.91"/><path class="cls-10" d="M221.89,298.16a31.94,31.94,0,0,1,20.61,7.49l80.1-24.48-12-39.23L205.32,274.11,213,299.4A32.29,32.29,0,0,1,221.89,298.16Z"/><path class="cls-4" d="M221.89,298.16a31.94,31.94,0,0,1,20.61,7.49l80.1-24.48-12-39.23L205.32,274.11,213,299.4A32.29,32.29,0,0,1,221.89,298.16Z"/><rect class="cls-9" x="403.77" y="325.08" width="51.46" height="45.96"/><rect class="cls-4" x="403.77" y="325.08" width="51.46" height="45.96"/></svg>